PathFileType	4	(X/Y/Z)	/Users/niels/Desktop/University/Third Semester/Perception and Action/Exam/Gymnastics Motion Tracking/Code for Gym Tracking/Analyzed Data/Webcam_Backflip/temp_id5_4_trajectory_Sports2D/temp_id5_4_trajectory_Sports2D_px_person00.trc
DataRate	CameraRate	NumFrames	NumMarkers	Units	OrigDataRate	OrigDataStartFrame	OrigNumFrames
29.8125	29.8125	11	22	m	29.8125	80	160
Frame#	Time	Hip			RHip			RKnee			RAnkle			RBigToe			RSmallToe			RHeel			LHip			LKnee			LAnkle			LBigToe			LSmallToe			LHeel			Neck			Head			Nose			RShoulder			RElbow			RWrist			LShoulder			LElbow			LWrist		
		X1	Y1	Z1	X2	Y2	Z2	X3	Y3	Z3	X4	Y4	Z4	X5	Y5	Z5	X6	Y6	Z6	X7	Y7	Z7	X8	Y8	Z8	X9	Y9	Z9	X10	Y10	Z10	X11	Y11	Z11	X12	Y12	Z12	X13	Y13	Z13	X14	Y14	Z14	X15	Y15	Z15	X16	Y16	Z16	X17	Y17	Z17	X18	Y18	Z18	X19	Y19	Z19	X20	Y20	Z20	X21	Y21	Z21	X22	Y22	Z22
80	2.683438155136268	0.9696102754656163	-0.5797378488805713	0.0	0.9690703230740666	-0.5786382810602653	0.0	0.988715963625106	-0.688136089276774	0.0	0.9726783826152565	-0.8004684599185	0.0	1.0051878733453161	-0.8186883935203686	0.0	0.9961006501927573	-0.8217333865485688	0.0	0.9638076689868315	-0.8164935542799018	0.0	0.9738635973053448	-0.577883671945594	0.0	0.9890671741866713	-0.6865923164768472	0.0	0.9732913207317364	-0.7952857383643918	0.0	1.015161220167727	-0.8088957348889647	0.0	1.0096553657483938	-0.8064519495965939	0.0	0.9598192312692259	-0.8086995798968577	0.0	0.9711015735256698	-0.4290318406751973	0.0	0.9894599578148311	-0.36395081854241496	0.0	0.9958980812666927	-0.39714898979236796	0.0	0.9695398899524279	-0.42786656088449115	0.0	1.01105332047267	-0.3735944789580165	0.0	1.0300157722740444	-0.3097186626338863	0.0	0.9677139320055111	-0.4341945307328722	0.0	1.0230077729660572	-0.4085071652748918	0.0	1.0619006777172129	-0.3707302357874627	0.0
81	2.716981132075471	0.9729443903331669	-0.5913725798725871	0.0	0.97246067543133	-0.5903322100394208	0.0	0.9908447174838035	-0.6987700651840382	0.0	0.9725560469450701	-0.8095240282030219	0.0	1.004577092580902	-0.8261503458371499	0.0	0.9957930514073635	-0.8296448185680598	0.0	0.9632135365511066	-0.8245727138497525	0.0	0.977014155784693	-0.5892980933984557	0.0	0.9902398442567842	-0.6970435032499385	0.0	0.9728059696259491	-0.8044748264782581	0.0	1.0131953461638952	-0.8163254954700107	0.0	1.0070652170718928	-0.8146884793589296	0.0	0.9590158629547691	-0.8173018496898112	0.0	0.9730296815272955	-0.4398261076700817	0.0	0.9910712825070156	-0.3738011917389972	0.0	0.9977607649301479	-0.40788798045756375	0.0	0.9710274332667601	-0.4405590166496402	0.0	1.0145277914787743	-0.38664799116484816	0.0	1.0334745404633678	-0.3220600230632932	0.0	0.9682855357130014	-0.44489923479873933	0.0	1.0274551238420495	-0.4160337784439457	0.0	1.0654327007916018	-0.3754107080974649	0.0
82	2.7505241090146746	0.9751980255360891	-0.599788536360999	0.0	0.9748521566578022	-0.5989110838854536	0.0	0.9921141562730299	-0.7065132149442395	0.0	0.9724565339260803	-0.8158728349664854	0.0	1.0049790463625363	-0.8308528121908592	0.0	0.9967005860477602	-0.834858841288407	0.0	0.9628709186229232	-0.8302019132997054	0.0	0.9786222095156608	-0.5977252405982244	0.0	0.9903897428908218	-0.7047060451528518	0.0	0.9720413252711473	-0.8109711894711232	0.0	1.0106783807903619	-0.8215874754726652	0.0	1.0039529170044923	-0.8205503779367223	0.0	0.9582474093906719	-0.8235347010131476	0.0	0.9743254022500959	-0.44887743834324195	0.0	0.9928037374599038	-0.3821373228631471	0.0	1.0001014610860288	-0.4168624835880456	0.0	0.9714859173888181	-0.45098045095507544	0.0	1.0191735981314032	-0.39945671417017375	0.0	1.0407457360367507	-0.3360163015656474	0.0	0.9694203278064893	-0.45430188944536204	0.0	1.0315935217240828	-0.4248432629230826	0.0	1.0711297512661886	-0.38187440332982986	0.0
83	2.784067085953878	0.9762991080469318	-0.6043606628287421	0.0	0.9761421668329758	-0.6037103315974693	0.0	0.9924529456608855	-0.7106947133455204	0.0	0.9722182182308313	-0.8190601283678576	0.0	1.0060144282369332	-0.8325855204800264	0.0	0.9983046647089633	-0.837042870925707	0.0	0.962597573470111	-0.8329945495649012	0.0	0.9786925976771977	-0.6025340764857182	0.0	0.9897003379377519	-0.7088783144860052	0.0	0.9711423565528295	-0.8141034788417244	0.0	1.0079614698811972	-0.8243465963421672	0.0	1.0007368886901158	-0.8234338081243561	0.0	0.9575611383400399	-0.8267999263251299	0.0	0.9751367931021864	-0.45510540495891516	0.0	0.994260427711205	-0.38790984978240156	0.0	1.002610510394351	-0.42296972374163627	0.0	0.9715207107789782	-0.4580671539825704	0.0	1.0247914928546853	-0.41125287259247245	0.0	1.0514650947723017	-0.35068032796880416	0.0	0.9705881879177739	-0.4609797328191805	0.0	1.035132551848081	-0.43353086787864553	0.0	1.0783820443537306	-0.3895907322230022	0.0
84	2.817610062893081	0.9762530748133735	-0.6049824192516078	0.0	0.9762395272563233	-0.6045096188675483	0.0	0.9919011608036358	-0.7110249371722969	0.0	0.9716377896753443	-0.8188513833615095	0.0	1.0069305351217057	-0.8313201916040834	0.0	0.9996454458188329	-0.8360808090041374	0.0	0.962123865207243	-0.8326655661406827	0.0	0.9775006540371501	-0.6034718671947338	0.0	0.9885110927750295	-0.7092522363396411	0.0	0.9702753210024683	-0.8135017244310498	0.0	1.0055431320761041	-0.8241769820620964	0.0	0.9981106200179433	-0.8229048581367474	0.0	0.9569370549565089	-0.8266870192424615	0.0	0.9757735673526652	-0.457699675660587	0.0	0.9953881190759405	-0.3902562223493303	0.0	1.005087599265757	-0.42554140894350323	0.0	0.9718897625658309	-0.46123398072153315	0.0	1.0308956394527486	-0.4216181652228726	0.0	1.0645831267838937	-0.36542089117779064	0.0	0.9711983659747925	-0.46398663121680467	0.0	1.0376310614046862	-0.4410187414424089	0.0	1.0858098749004963	-0.3981842807785017	0.0
85	2.8511530398322846	0.9751516633808213	-0.6019129014193849	0.0	0.9751358038209177	-0.6014727117705894	0.0	0.9906585692369955	-0.7076375815077167	0.0	0.9706209397795353	-0.8152592354953762	0.0	1.0071987026154607	-0.8272446939588772	0.0	1.00003870861173	-0.832102826819734	0.0	0.9612888601846332	-0.8290953796455683	0.0	0.9755322058377776	-0.6006596057342282	0.0	0.9872578685973792	-0.7059792567208473	0.0	0.969567913665233	-0.8091886710775964	0.0	1.003909111925832	-0.820850739815833	0.0	0.9967120794314314	-0.8189689438468807	0.0	0.9564381014571537	-0.8230463461112136	0.0	0.9765050191354833	-0.45634916315566076	0.0	0.9964960899375931	-0.3888287257095965	0.0	1.0074898157696561	-0.42449847052090783	0.0	0.9730419935623297	-0.4605057800867521	0.0	1.0368319161512236	-0.4303921628161186	0.0	1.0786301190722918	-0.3799678295750802	0.0	0.9710634011524105	-0.4630974508928023	0.0	1.0384221404827558	-0.4468245612240192	0.0	1.0913914929994935	-0.4076094601887339	0.0
86	2.884696016771488	0.9731631076029404	-0.5957307060467204	0.0	0.9729653805472828	-0.595159040096232	0.0	0.9891239089934901	-0.7010664598078854	0.0	0.9692772878174497	-0.8086260615345034	0.0	1.007027969617074	-0.820754596791773	0.0	0.9996921754877589	-0.8255106167083671	0.0	0.9601173818263574	-0.8225615711466348	0.0	0.97323336268805	-0.5946208444757086	0.0	0.9863486615302514	-0.699621905571257	0.0	0.9690797321799691	-0.8016402585565949	0.0	1.0033756932042015	-0.8146038038919554	0.0	0.9968064278727099	-0.8121305023167864	0.0	0.9562237429949638	-0.81618555065511	0.0	0.9774304673257359	-0.4513849683185604	0.0	0.9978992630813227	-0.3839583478158092	0.0	1.0097957687681394	-0.42027975412079543	0.0	0.9749837558342157	-0.4564637574283845	0.0	1.0419551319645681	-0.43764194874298057	0.0	1.0920363828625366	-0.39447069468312823	0.0	0.9704355932956809	-0.45877261914946615	0.0	1.036607617366535	-0.45103739432175405	0.0	1.0927438753561745	-0.4181708376063565	0.0
87	2.918238993710691	0.9705112026350222	-0.5873168744569626	0.0	0.9699952438116478	-0.5865061220119662	0.0	0.9877839071536066	-0.6921684017274659	0.0	0.9678557627526626	-0.7996651997776543	0.0	1.0069784254324392	-0.812408302231449	0.0	0.9992975789270568	-0.8169358875127302	0.0	0.9587792188071763	-0.8137984671126628	0.0	0.9708299363494792	-0.5862194797940362	0.0	0.9860337893714596	-0.6910137248273505	0.0	0.9688209772666762	-0.7917547840025885	0.0	1.0039257485234983	-0.8061220462690426	0.0	0.9981934002955068	-0.8032257354652111	0.0	0.9564250979042216	-0.8069204374659652	0.0	0.9785033553057095	-0.44373061541612013	0.0	0.9996203405156573	-0.37653447794096556	0.0	1.0119410734955105	-0.4136361601159458	0.0	0.9774168439431294	-0.4500258156331848	0.0	1.0457375200080743	-0.4435965949262578	0.0	1.1033597915040614	-0.40927088216714597	0.0	0.9696894094226638	-0.45192639279505	0.0	1.0313095244073682	-0.4541898934078645	0.0	1.0876538920127543	-0.4304620383541963	0.0
88	2.9517819706498947	0.9674592186486544	-0.5777737622348875	0.0	0.9665844839201834	-0.5767047390592503	0.0	0.9870432563466063	-0.6820203908787352	0.0	0.9665862335654123	-0.7893989215047649	0.0	1.0072190063550763	-0.8029542611962457	0.0	0.999208703979714	-0.8072117534266326	0.0	0.957473600313054	-0.8038092687634998	0.0	0.9683926733284971	-0.5765585204036929	0.0	0.9863827740130556	-0.6811444534391581	0.0	0.9687539508766216	-0.7806954544557824	0.0	1.0051063478268076	-0.7963779885974936	0.0	1.0002439795359066	-0.7932574016773436	0.0	0.9569856760339686	-0.7963630988358384	0.0	0.9796197187111948	-0.4346981435948095	0.0	1.0014928734210145	-0.3677595488334153	0.0	1.0138752194978313	-0.4055366454761567	0.0	0.9799397021108248	-0.4422705196567201	0.0	1.0477644688516434	-0.4485595840301768	0.0	1.1114739295601472	-0.4245788053132977	0.0	0.9690261477767361	-0.44370636200523494	0.0	1.0222779668595965	-0.45700413488093494	0.0	1.0750456206647063	-0.44498288901329736	0.0
89	2.985324947589098	0.9643052375707605	-0.568265329272446	0.0	0.9631555957212814	-0.5669872205602353	0.0	0.9871431749226265	-0.6717654272284714	0.0	0.9656118682693949	-0.7789817351005017	0.0	1.0075246564792064	-0.7933529146943525	0.0	0.9993429408190526	-0.7973457549136462	0.0	0.9563290587370726	-0.7936642539446326	0.0	0.9659841359505381	-0.5668539464175862	0.0	0.9873465392313989	-0.6710671801533074	0.0	0.9687930610407921	-0.7697006350704734	0.0	1.006275901147284	-0.786506156656221	0.0	1.002202170027454	-0.7833286049919908	0.0	0.9576003716164325	-0.7857052288497606	0.0	0.9806583136089971	-0.42568462036609367	0.0	1.003352230740853	-0.3588906878138883	0.0	1.0155990656143217	-0.39711188764202887	0.0	0.982190791627406	-0.43432835650581714	0.0	1.0477394564022608	-0.4529044937038496	0.0	1.1156830250811658	-0.440372873241648	0.0	0.9685096979326059	-0.4353219316054275	0.0	1.0110093624136158	-0.45995524306595964	0.0	1.0567720312318407	-0.4611496731914088	0.0
90	3.018867924528301	0.9613692641048386	-0.5598431976024298	0.0	0.9601452892562454	-0.5584373365301651	0.0	0.9881586742666641	-0.6624671293418234	0.0	0.9649988603299635	-0.7694848141683099	0.0	1.0077200098232604	-0.7846509669254116	0.0	0.9995513881675523	-0.7883937448635361	0.0	0.9553812725117561	-0.7843756939038761	0.0	0.9637307746416847	-0.5582427633803813	0.0	0.9887572097214873	-0.6618091090773328	0.0	0.9688010121252869	-0.7599408747136127	0.0	1.0069847449523213	-0.7777022115073765	0.0	1.0035453270945704	-0.7745884494916024	0.0	0.9578016301538521	-0.776126211584109	0.0	0.9815175396001934	-0.41789998746105694	0.0	1.0050698793109691	-0.35103667957839796	0.0	1.0171376535423582	-0.38948664085611895	0.0	0.9838979413079528	-0.42724464912653476	0.0	1.0455665768277187	-0.45709723560656246	0.0	1.1157450504557558	-0.45649831750342607	0.0	0.9683070474137565	-0.4278814027317305	0.0	1.0013601765303608	-0.4630858500138122	0.0	1.0388657762136213	-0.4768390290672719	0.0
